<?xml version="1.0" encoding="UTF-8"?>
<svg xmlns="http://www.w3.org/2000/svg" xmlns:xlink="http://www.w3.org/1999/xlink" width="30px" height="30px" viewBox="0 0 30 30" version="1.1">
<g id="surface1">
<path style=" stroke:none;fill-rule:nonzero;fill:rgb(0%,0%,0%);fill-opacity:1;" d="M 0.457031 0.125 C 0.320312 0.195312 0.1875 0.328125 0.117188 0.46875 C 0 0.695312 0 0.78125 0.0117188 4.710938 C 0.03125 8.683594 0.03125 8.726562 0.152344 8.890625 C 0.222656 8.976562 0.363281 9.105469 0.476562 9.171875 C 0.664062 9.28125 0.78125 9.289062 2.796875 9.289062 C 4.851562 9.289062 4.914062 9.28125 5.078125 9.164062 C 5.167969 9.101562 5.304688 8.953125 5.378906 8.847656 C 5.5 8.660156 5.507812 8.617188 5.507812 7.078125 L 5.507812 5.507812 L 6.992188 5.519531 L 8.46875 5.539062 L 8.496094 7.148438 C 8.53125 8.921875 8.53125 8.921875 8.90625 9.15625 C 9.105469 9.289062 9.152344 9.289062 11.21875 9.289062 C 13.226562 9.289062 13.34375 9.28125 13.53125 9.171875 C 13.640625 9.105469 13.78125 8.976562 13.851562 8.890625 C 13.976562 8.726562 13.976562 8.683594 13.992188 4.734375 C 14.003906 0.832031 14.003906 0.738281 13.886719 0.5 C 13.8125 0.34375 13.6875 0.210938 13.539062 0.128906 C 13.320312 0.0078125 13.265625 0 11.242188 0 C 8.929688 0 8.894531 0.0078125 8.632812 0.40625 C 8.5 0.597656 8.496094 0.640625 8.496094 2.171875 L 8.496094 3.75 L 5.507812 3.75 L 5.507812 2.171875 C 5.507812 -0.148438 5.6875 0 2.753906 0 C 0.796875 0.0078125 0.664062 0.0117188 0.457031 0.125 Z M 3.75 4.65625 L 3.75 7.558594 L 1.757812 7.558594 L 1.757812 1.757812 L 3.75 1.757812 Z M 12.234375 4.640625 L 12.21875 7.53125 L 11.238281 7.546875 L 10.253906 7.558594 L 10.253906 1.757812 L 12.246094 1.757812 Z M 12.234375 4.640625 "/>
<path style=" stroke:none;fill-rule:nonzero;fill:rgb(0%,0%,0%);fill-opacity:1;" d="M 17.492188 0.0820312 C 17.25 0.1875 17.003906 0.484375 16.960938 0.71875 C 16.945312 0.828125 16.933594 2.660156 16.945312 4.804688 L 16.960938 8.703125 L 17.097656 8.894531 C 17.375 9.273438 17.414062 9.28125 19.421875 9.316406 L 21.242188 9.34375 L 21.550781 9.515625 C 22.148438 9.851562 22.515625 10.421875 22.585938 11.144531 C 22.609375 11.355469 22.675781 11.613281 22.742188 11.710938 C 23.050781 12.222656 23.90625 12.203125 24.210938 11.683594 C 24.269531 11.585938 24.339844 11.3125 24.367188 11.09375 C 24.433594 10.554688 24.597656 10.207031 24.929688 9.875 C 25.441406 9.363281 25.5 9.351562 27.539062 9.316406 C 29.191406 9.289062 29.34375 9.273438 29.523438 9.171875 C 29.636719 9.105469 29.777344 8.976562 29.847656 8.890625 C 29.96875 8.726562 29.96875 8.683594 29.988281 4.710938 C 30 0.78125 30 0.695312 29.882812 0.46875 C 29.804688 0.316406 29.683594 0.195312 29.53125 0.117188 C 29.3125 0.0078125 29.191406 0 27.617188 0 C 26.367188 0 25.820312 0.0234375 25.515625 0.0859375 C 24.972656 0.199219 24.25 0.570312 23.820312 0.960938 L 23.46875 1.273438 L 23.117188 0.953125 C 22.695312 0.570312 21.972656 0.203125 21.414062 0.0859375 C 20.851562 -0.03125 17.753906 -0.0351562 17.492188 0.0820312 Z M 21.457031 1.945312 C 22.039062 2.214844 22.429688 2.734375 22.558594 3.390625 C 22.640625 3.820312 22.632812 8.027344 22.558594 8.027344 C 22.523438 8.027344 22.398438 7.980469 22.277344 7.914062 C 21.695312 7.625 21.53125 7.59375 20.097656 7.5625 L 18.71875 7.53125 L 18.703125 4.640625 L 18.691406 1.75 L 19.90625 1.769531 C 21.082031 1.789062 21.132812 1.792969 21.457031 1.945312 Z M 28.242188 4.65625 L 28.242188 7.558594 L 26.992188 7.558594 C 25.65625 7.558594 25.347656 7.605469 24.734375 7.882812 C 24.5625 7.960938 24.410156 8.027344 24.390625 8.027344 C 24.382812 8.027344 24.375 6.925781 24.386719 5.578125 L 24.40625 3.132812 L 24.5625 2.84375 C 24.644531 2.679688 24.832031 2.4375 24.976562 2.304688 C 25.5 1.820312 25.710938 1.769531 27.117188 1.765625 L 28.242188 1.757812 Z M 28.242188 4.65625 "/>
<path style=" stroke:none;fill-rule:nonzero;fill:rgb(0%,0%,0%);fill-opacity:1;" d="M 13.960938 10.460938 C 12.835938 10.664062 11.984375 11.097656 11.171875 11.890625 C 9.5625 13.453125 9.011719 15.921875 9.78125 18.148438 C 10.125 19.140625 10.84375 20.117188 11.703125 20.726562 C 11.90625 20.871094 12.0625 21.023438 12.054688 21.058594 C 12.039062 21.09375 11.898438 21.503906 11.75 21.972656 L 11.46875 22.828125 L 9.972656 23.585938 C 9.152344 24.007812 8.285156 24.46875 8.050781 24.621094 C 7.046875 25.265625 6.289062 26.296875 5.898438 27.523438 C 5.71875 28.09375 5.601562 29.070312 5.683594 29.359375 C 5.75 29.59375 5.988281 29.847656 6.226562 29.9375 C 6.460938 30.023438 23.539062 30.023438 23.773438 29.9375 C 24.011719 29.847656 24.25 29.59375 24.316406 29.359375 C 24.398438 29.070312 24.28125 28.09375 24.101562 27.523438 C 23.710938 26.289062 22.953125 25.273438 21.921875 24.597656 C 21.671875 24.433594 20.8125 23.976562 20.003906 23.566406 L 18.53125 22.835938 L 18.25 21.976562 C 18.101562 21.507812 17.960938 21.09375 17.945312 21.058594 C 17.9375 21.023438 18.09375 20.871094 18.296875 20.726562 C 18.820312 20.351562 19.492188 19.609375 19.796875 19.078125 C 20.914062 17.125 20.78125 14.445312 19.488281 12.640625 C 19.125 12.125 18.375 11.425781 17.871094 11.132812 C 16.75 10.476562 15.269531 10.21875 13.960938 10.460938 Z M 15.878906 12.222656 C 16.71875 12.414062 17.523438 12.949219 18.039062 13.640625 C 18.335938 14.023438 18.640625 14.660156 18.71875 15.039062 L 18.761719 15.234375 L 18.269531 15.234375 C 17.703125 15.234375 17.027344 15.132812 15.734375 14.851562 C 15.21875 14.742188 14.570312 14.613281 14.296875 14.554688 C 13.6875 14.4375 12.210938 14.378906 11.796875 14.460938 C 11.421875 14.523438 11.40625 14.5 11.683594 14.046875 C 12.25 13.101562 13.101562 12.460938 14.109375 12.21875 C 14.5625 12.109375 15.414062 12.109375 15.878906 12.222656 Z M 13.976562 16.289062 C 14.359375 16.351562 15.085938 16.492188 15.59375 16.605469 C 16.796875 16.882812 17.519531 16.992188 18.15625 17.007812 C 18.78125 17.023438 18.773438 17.007812 18.546875 17.609375 C 18.179688 18.578125 17.28125 19.453125 16.183594 19.898438 C 15.304688 20.257812 14.90625 20.273438 14.144531 20.015625 C 12.507812 19.464844 11.429688 18.242188 11.21875 16.695312 L 11.179688 16.421875 L 11.554688 16.328125 C 12.105469 16.1875 12.109375 16.183594 12.714844 16.179688 C 13.023438 16.179688 13.582031 16.226562 13.976562 16.289062 Z M 14.210938 21.855469 C 14.796875 22.007812 15.203125 22 15.8125 21.851562 C 16.078125 21.785156 16.304688 21.738281 16.3125 21.75 C 16.390625 21.835938 16.757812 23.109375 16.722656 23.144531 C 16.585938 23.261719 15.054688 24.257812 15 24.257812 C 14.945312 24.257812 13.414062 23.261719 13.277344 23.144531 C 13.230469 23.097656 13.648438 21.738281 13.71875 21.738281 C 13.734375 21.738281 13.957031 21.789062 14.210938 21.855469 Z M 13.421875 25.351562 C 15.132812 26.496094 14.867188 26.496094 16.578125 25.351562 L 17.871094 24.492188 L 19.46875 25.289062 C 21.015625 26.070312 21.078125 26.101562 21.507812 26.539062 C 21.859375 26.890625 22.007812 27.085938 22.1875 27.480469 C 22.324219 27.757812 22.441406 28.039062 22.460938 28.109375 L 22.488281 28.242188 L 7.511719 28.242188 L 7.539062 28.109375 C 7.558594 28.039062 7.675781 27.757812 7.8125 27.480469 C 7.992188 27.085938 8.140625 26.890625 8.492188 26.539062 C 8.921875 26.101562 8.988281 26.070312 10.515625 25.296875 C 11.390625 24.855469 12.105469 24.5 12.117188 24.492188 C 12.125 24.492188 12.714844 24.878906 13.421875 25.351562 Z M 13.421875 25.351562 "/>
<path style=" stroke:none;fill-rule:nonzero;fill:rgb(0%,0%,0%);fill-opacity:1;" d="M 25.898438 14.234375 C 25.789062 14.289062 25.640625 14.40625 25.578125 14.496094 C 25.464844 14.648438 25.460938 14.75 25.441406 16.828125 L 25.421875 18.996094 L 25.296875 18.960938 C 24.546875 18.757812 23.953125 18.789062 23.34375 19.066406 C 22.28125 19.554688 21.679688 20.445312 21.679688 21.527344 C 21.679688 22.382812 21.921875 22.980469 22.464844 23.523438 C 23.023438 24.078125 23.609375 24.3125 24.40625 24.316406 C 24.898438 24.316406 25.398438 24.195312 25.792969 23.984375 C 26.453125 23.625 27.007812 22.816406 27.128906 22.03125 C 27.15625 21.820312 27.1875 20.65625 27.1875 19.4375 C 27.1875 18.21875 27.203125 17.226562 27.234375 17.238281 C 28.140625 17.707031 29.015625 17.871094 29.496094 17.671875 C 29.917969 17.496094 30.101562 16.96875 29.894531 16.507812 C 29.75 16.179688 29.542969 16.0625 29 15.992188 C 28.78125 15.96875 28.476562 15.882812 28.320312 15.808594 C 28.007812 15.664062 27.375 15.0625 27.082031 14.632812 C 26.753906 14.144531 26.332031 14 25.898438 14.234375 Z M 24.992188 20.765625 C 25.359375 21.011719 25.511719 21.5625 25.324219 21.984375 C 24.984375 22.757812 23.917969 22.78125 23.519531 22.019531 C 23.40625 21.808594 23.414062 21.363281 23.53125 21.117188 C 23.765625 20.632812 24.507812 20.449219 24.992188 20.765625 Z M 24.992188 20.765625 "/>
<path style=" stroke:none;fill-rule:nonzero;fill:rgb(0%,0%,0%);fill-opacity:1;" d="M 1.835938 17.46875 C 1.109375 17.695312 0.398438 18.414062 0.15625 19.160156 C -0.101562 19.9375 0.0078125 20.820312 0.445312 21.617188 C 0.71875 22.109375 1.625 23.007812 2.257812 23.429688 C 3.039062 23.945312 3.878906 24.335938 4.1875 24.328125 C 4.507812 24.328125 5.28125 23.964844 5.992188 23.496094 C 6.621094 23.078125 7.460938 22.265625 7.804688 21.742188 C 8.210938 21.125 8.335938 20.65625 8.308594 19.90625 C 8.289062 19.382812 8.261719 19.257812 8.101562 18.90625 C 7.839844 18.359375 7.351562 17.875 6.757812 17.589844 C 6.3125 17.378906 6.28125 17.375 5.625 17.375 C 4.984375 17.375 4.929688 17.382812 4.554688 17.5625 L 4.15625 17.753906 L 3.9375 17.640625 C 3.316406 17.328125 2.492188 17.257812 1.835938 17.46875 Z M 3.078125 19.160156 C 3.15625 19.1875 3.34375 19.335938 3.492188 19.484375 C 3.929688 19.910156 4.394531 19.914062 4.859375 19.488281 C 5.214844 19.15625 5.328125 19.101562 5.671875 19.101562 C 6.433594 19.101562 6.789062 19.890625 6.390625 20.695312 C 6.132812 21.210938 5.355469 21.878906 4.46875 22.351562 L 4.160156 22.515625 L 3.679688 22.234375 C 2.40625 21.5 1.792969 20.78125 1.789062 20.027344 C 1.789062 19.65625 1.890625 19.460938 2.226562 19.230469 C 2.4375 19.089844 2.804688 19.0625 3.078125 19.160156 Z M 3.078125 19.160156 "/>
</g>
</svg>
