<svg width="24" height="24" viewBox="0 0 24 24" fill="none" xmlns="http://www.w3.org/2000/svg">
<path fill-rule="evenodd" clip-rule="evenodd" d="M7.30964 0H16.6904C20.7274 0 24 3.27264 24 7.30964V16.6904C24 20.7274 20.7274 24 16.6904 24H7.30964C3.27264 24 0 20.7274 0 16.6904V7.30964C0 3.27264 3.27264 0 7.30964 0ZM22.1728 7.30964C22.1661 4.28467 19.7156 1.83411 16.6906 1.82741H7.30987C4.2849 1.83411 1.83434 4.28467 1.82764 7.30964V16.6904C1.83434 19.7153 4.2849 22.1659 7.30987 22.1726H16.6906C19.7156 22.1659 22.1661 19.7153 22.1728 16.6904V7.30964Z" fill="#5A5A5A"/>
<path fill-rule="evenodd" clip-rule="evenodd" d="M6.76123 12C6.76793 9.1096 9.1094 6.76813 11.9998 6.76143C14.8902 6.76813 17.2317 9.1096 17.2384 12C17.2384 14.8932 14.893 17.2386 11.9998 17.2386C9.10662 17.2386 6.76123 14.8932 6.76123 12ZM15.4107 12C15.4107 10.1161 13.8835 8.58884 11.9995 8.58884C10.1184 8.59552 8.59506 10.1188 8.58838 12C8.58838 13.8839 10.1156 15.4112 11.9995 15.4112C13.8835 15.4112 15.4107 13.8839 15.4107 12Z" fill="#5A5A5A"/>
<path d="M16.4585 5.48832C16.4585 4.75829 17.0503 4.16649 17.7803 4.16649C18.5103 4.16649 19.1021 4.75829 19.1021 5.48832C19.1021 6.21834 18.5103 6.81014 17.7803 6.81014C17.0503 6.81014 16.4585 6.21834 16.4585 5.48832Z" fill="#5A5A5A"/>
</svg>
